<svg aria-hidden="true" style="position:absolute;width:0;height:0" xmlns="http://www.w3.org/2000/svg" overflow="hidden"><defs><symbol id="icon-americanexpress" viewBox="0 0 32 32"><path d="M21.353 19.171c0-.427-.18-.661-.459-.829-.28-.16-.619-.18-1.08-.18h-2.057v3.76h.9v-1.369h.96c.32 0 .52.032.637.167.16.173.139.507.139.733v.467h.88v-.74c-.003-.333-.023-.501-.144-.688a.997.997 0 0 0-.44-.312l.027-.011c.24-.096.64-.396.64-.996zm-1.16.542l-.037-.003c-.12.071-.26.077-.44.077h-1.08v-.84h1.099c.16 0 .32 0 .44.067a.353.353 0 0 1 .2.34c0 .16-.06.287-.179.36zm6.87 1.403h-1.729v.8h1.739c.901 0 1.4-.371 1.4-1.179 0-.373-.088-.597-.249-.776-.204-.177-.523-.257-.973-.276l-.501-.02c-.139 0-.24 0-.34-.04a.282.282 0 0 1-.2-.28c0-.12.023-.221.12-.28a.664.664 0 0 1 .363-.08h1.64v-.803h-1.8c-.939 0-1.277.583-1.277 1.12 0 1.2 1.035 1.14 1.876 1.16.139 0 .24.02.3.08.061.04.109.141.109.24 0 .103-.047.2-.107.24-.08.071-.2.093-.369.093zM0 0v13.461l1.08-2.501h2.333l.3.619v-.619h2.724l.6 1.36.583-1.351h8.669c.393 0 .747.076 1.008.315v-.307h2.383v.307c.409-.227.915-.307 1.493-.307h3.475l.32.621v-.621h2.557l.339.62v-.621h2.477v5.264h-2.515l-.48-.8v.78h-3.137l-.341-.84h-.777l-.36.819h-1.617c-.64 0-1.12-.139-1.44-.32v.32h-3.853V15.02c0-.16-.04-.16-.14-.18h-.14v1.381H8.09v-.64l-.28.64H6.254l-.269-.64v.62H2.981l-.341-.832h-.772l-.341.832H.002V32h31.715v-9.477c-.36.18-.817.24-1.297.24h-2.297v-.34c-.28.22-.76.34-1.219.34h-7.288v-1.2c0-.16-.024-.16-.16-.16h-.1v1.363h-2.4v-1.421c-.397.181-.857.2-1.237.181h-.285v1.22h-2.907l-.72-.823-.76.8H6.326v-5.24h4.813l.691.803.739-.8h3.216c.373 0 .987.04 1.256.3v-.32h2.903c.269 0 .859.06 1.204.3v-.32h4.353v.32c.217-.219.677-.32 1.071-.32h2.52v.32c.259-.2.619-.32 1.12-.32h1.568V.001H.004zm28.208 19.94c.005.007.008.016.013.021.013.013.032.013.043.027l-.056-.047zm3.563-2.497h.087v.74h-.087zm.049 2.597v-.007c-.04-.033-.061-.064-.1-.093-.2-.204-.52-.287-1.019-.3l-.48-.016c-.16 0-.259-.009-.36-.04a.282.282 0 0 1-.2-.28c0-.12.04-.213.12-.272.101-.06.2-.067.36-.067h1.631v-.784h-1.711c-.92 0-1.28.583-1.28 1.12 0 1.2 1.04 1.14 1.88 1.16.139 0 .24.02.299.08.061.04.101.141.101.24a.303.303 0 0 1-.12.24c-.06.075-.181.093-.36.093h-1.717v.807h1.716c.56 0 .979-.157 1.2-.48h.04c.12-.179.18-.4.18-.697 0-.32-.06-.52-.18-.701zm-7.024-1.096v-.777h-2.98v3.777h2.98v-.78h-2.093v-.76h2.044v-.779h-2.043v-.68zm-6.783-7.228h.913v3.751h-.912zm-.512 1.008l-.009.008c0-.419-.173-.667-.453-.832-.289-.167-.627-.18-1.08-.18h-2.052v3.76h.899v-1.379h.96c.32 0 .52.04.649.16.163.181.143.504.143.731v.472h.903v-.737c0-.333-.021-.5-.147-.688a1.05 1.05 0 0 0-.44-.316c.229-.093.629-.4.629-1zm-1.14.528h-.02c-.12.072-.26.075-.44.075H14.8v-.831h1.1c.16 0 .32.005.44.067.12.053.2.171.2.333s-.063.293-.179.355zm4.866-.755h.843v-.8h-.859c-.619 0-1.072.14-1.36.44-.381.4-.483.92-.483 1.48 0 .683.164 1.111.48 1.432.309.317.86.413 1.293.413h1.04l.34-.836h1.853l.349.836h1.813v-2.813l1.696 2.813h1.267l.003.003v-3.751h-.912v2.617l-1.573-2.613h-1.36v3.481l-1.511-3.541h-1.339l-1.257 2.96h-.4c-.236 0-.483-.04-.624-.179-.167-.2-.248-.48-.248-.883 0-.38.107-.68.259-.84.177-.18.363-.22.688-.22zm2.224-.144l.619 1.491v.003h-1.24l.621-1.493zM3.173 14.627l.339.837h1.821v-2.94l1.296 2.94h.779l1.297-2.936.02 2.936h.92v-3.747H8.157l-1.076 2.539-1.168-2.54H4.457v3.551L2.94 11.716H1.611L.014 15.463h.96l.347-.835h1.853zm-.917-2.274l.613 1.491-.004.003h-1.22l.609-1.493zm13.552 5.807h-2.856l-1.133 1.231-1.1-1.229H7.128v3.76h3.539l1.14-1.243 1.099 1.24h1.736v-1.253h1.117c.8 0 1.56-.219 1.56-1.26l-.008-.004c0-1.04-.797-1.24-1.504-1.24zm-5.581 2.977l-.019-.003H8.027v-.743h1.96v-.765h-1.96v-.68h2.24l.977 1.093-1.019 1.099zm3.522.44l-1.373-1.529 1.373-1.477v3.004zM15.82 19.9h-1.18v-.956h1.18c.32 0 .56.131.56.459 0 .324-.2.496-.56.496zm-2.531-7.403v-.781h-2.983v3.751h2.983v-.773H11.2v-.752h2.036v-.768H11.2v-.676z"/></symbol><symbol id="icon-cc-mastercard" viewBox="0 0 36 28"><path d="M17.484 5.328A7.97 7.97 0 0 0 13.093 4C8.702 4 5.14 7.563 5.14 11.938a7.955 7.955 0 0 0 7.953 7.953 7.97 7.97 0 0 0 4.391-1.328c-4.188-3.406-4.156-9.828 0-13.234zm.516.375c-4.031 3.172-4.047 9.328 0 12.484 4.047-3.156 4.031-9.312 0-12.484zm.516-.375c4.141 3.406 4.203 9.844 0 13.234a8.01 8.01 0 0 0 4.391 1.328 7.955 7.955 0 0 0 7.953-7.953c0-4.375-3.563-7.938-7.953-7.938a7.97 7.97 0 0 0-4.391 1.328zm11.578 11.281h.109v-.047h-.266v.047h.109v.266h.047v-.266zm.453.266h.063v-.313h-.078l-.094.203-.094-.203h-.078v.313h.047v-.234l.094.203h.063l.078-.203v.234zm-.125 6.875v.031h-.078v-.047h.078v.016zm0 .141h.047l-.063-.078c.031 0 .031-.016.047-.016.016-.016.016-.031.016-.047s0-.031-.016-.047c-.016 0-.031-.016-.063-.016h-.094v.203h.047v-.078h.016zm-19.719-1.063c0-.375.234-.672.641-.672.375 0 .625.297.625.672 0 .391-.25.672-.625.672-.406 0-.641-.297-.641-.672zm7.391-.687c.297 0 .5.172.547.5h-1.094c.047-.297.234-.5.547-.5zm5.562.687c0-.375.234-.672.625-.672s.641.297.641.672c0 .391-.25.672-.641.672s-.625-.297-.625-.672zm4.25 0c0-.375.25-.672.641-.672.375 0 .641.297.641.672 0 .391-.266.672-.641.672-.391 0-.641-.297-.641-.672zm2.469 1.125c-.016 0-.031 0-.063-.016-.016 0-.031-.016-.047-.031s-.031-.031-.031-.047-.016-.047-.016-.063 0-.047.016-.063c0-.031.016-.047.031-.063s.031-.016.047-.031.047-.016.063-.016.047 0 .063.016.047.016.063.031.016.031.031.063c0 .016.016.031.016.063 0 .016-.016.031-.016.063-.016.016-.016.031-.031.047s-.031.031-.063.031c-.016.016-.031.016-.063.016zm-21.016-.062h.469v-1.328c0-.5-.328-.828-.844-.844-.266 0-.547.078-.734.375-.141-.234-.375-.375-.703-.375a.717.717 0 0 0-.609.313v-.25h-.469v2.109h.469v-1.172c0-.375.203-.562.516-.562s.469.203.469.562v1.172h.453v-1.172c0-.375.219-.562.516-.562.313 0 .469.203.469.562v1.172zm2.594 0h.453v-2.109h-.453v.25a.841.841 0 0 0-.672-.313c-.594 0-1.047.469-1.047 1.109s.453 1.109 1.047 1.109c.297 0 .516-.109.672-.313v.266zm2.781-.641c0-.375-.281-.562-.734-.625l-.219-.031c-.203-.031-.359-.078-.359-.219s.141-.234.391-.234c.281 0 .531.094.672.172l.187-.375c-.219-.141-.516-.219-.859-.219-.531 0-.875.266-.875.688 0 .344.25.547.734.609l.203.031c.266.047.375.109.375.219 0 .172-.172.266-.484.266s-.547-.109-.703-.219l-.203.359c.25.172.562.266.906.266.609 0 .969-.281.969-.688zm2.032.531l-.125-.391a.838.838 0 0 1-.406.109c-.234 0-.297-.141-.297-.344v-.953h.75v-.422h-.75v-.641h-.469v.641h-.438v.422h.438v.953c0 .484.187.781.734.781.187 0 .422-.063.562-.156zm1.343-2.062c-.609 0-1.047.453-1.047 1.109 0 .672.453 1.109 1.078 1.109.313 0 .609-.078.859-.297l-.219-.344a1.02 1.02 0 0 1-.609.234c-.297 0-.562-.141-.641-.516h1.578v-.187c0-.656-.406-1.109-1-1.109zm2.485 0a.593.593 0 0 0-.547.313v-.25h-.469v2.109h.469v-1.188c0-.344.141-.547.453-.547a.61.61 0 0 1 .281.063l.141-.438a.864.864 0 0 0-.328-.063zm.469 1.109c0 .641.438 1.109 1.125 1.109.313 0 .531-.063.75-.25l-.219-.375c-.172.125-.344.203-.547.187-.375 0-.641-.266-.641-.672s.266-.672.641-.672c.203 0 .375.063.547.187l.219-.375a1.117 1.117 0 0 0-.75-.25c-.688 0-1.125.469-1.125 1.109zm3.828 1.063h.469v-2.109h-.469v.25a.788.788 0 0 0-.656-.313c-.594 0-1.062.469-1.062 1.109s.469 1.109 1.062 1.109c.297 0 .516-.109.656-.313v.266zm2.078-2.172a.593.593 0 0 0-.547.313v-.25h-.453v2.109h.453v-1.188c0-.344.156-.547.453-.547a.61.61 0 0 1 .281.063l.141-.438a.814.814 0 0 0-.328-.063zm2.187 2.172h.453v-2.969h-.453v1.109c-.141-.187-.359-.313-.672-.313-.578 0-1.047.469-1.047 1.109s.469 1.109 1.047 1.109c.313 0 .531-.109.672-.313v.266zm1.219-.313c-.016 0-.047.016-.078.016a.228.228 0 0 0-.063.047c-.031.016-.047.047-.047.063-.016.031-.016.063-.016.094 0 .016 0 .047.016.078 0 .016.016.047.047.063.016.016.031.031.063.047s.063.016.078.016c.031 0 .063 0 .094-.016.016-.016.047-.031.063-.047s.031-.047.047-.063c.016-.031.016-.063.016-.078 0-.031 0-.063-.016-.094-.016-.016-.031-.047-.047-.063s-.047-.031-.063-.047c-.031 0-.063-.016-.094-.016zM36 4v20c0 1.094-.906 2-2 2H2c-1.094 0-2-.906-2-2V4c0-1.094.906-2 2-2h32c1.094 0 2 .906 2 2z"/></symbol><symbol id="icon-cc-visa" viewBox="0 0 36 28"><path d="M30.859 15.469h-2.156s.219-.578 1.031-2.797c-.016.016.219-.578.344-.953l.187.859c.484 2.391.594 2.891.594 2.891zM8.297 14.453l-.906-4.609C7.266 9.203 6.782 9 6.219 9H2.031L2 9.203c2.875.734 5.234 2.297 6.297 5.25zM11.094 9l-2.531 6.844-.266-1.391C7.75 13 6.422 11.656 4.922 11.047l2.109 7.969h2.734L13.843 9h-2.75zm2.172 10.031h2.594L17.485 9h-2.594zm12-9.781a6.451 6.451 0 0 0-2.328-.422c-2.562 0-4.359 1.359-4.375 3.313-.016 1.437 1.281 2.234 2.266 2.719 1.016.484 1.344.812 1.344 1.25 0 .672-.812.969-1.547.969-1.047 0-1.609-.125-2.438-.516l-.344-.172-.359 2.25c.609.281 1.719.531 2.891.531 2.719.016 4.484-1.344 4.516-3.422 0-1.141-.703-2-2.188-2.719-.906-.453-1.453-.781-1.453-1.25 0-.422.469-.859 1.484-.859.844-.016 1.469.156 1.937.375l.234.125zm6.64-.25h-2c-.625 0-1.094.187-1.359.844l-3.844 9.188h2.719c.438-1.234.547-1.5.547-1.5h3.313s.078.344.313 1.5h2.406zM36 4v20c0 1.094-.906 2-2 2H2c-1.094 0-2-.906-2-2V4c0-1.094.906-2 2-2h32c1.094 0 2 .906 2 2z"/></symbol><symbol id="icon-cc-paypal" viewBox="0 0 36 28"><path d="M11.641 14.156c0 .766-.609 1.344-1.375 1.344-.578 0-1-.328-1-.938 0-.766.594-1.375 1.359-1.375.578 0 1.016.359 1.016.969zm12.265-2.328c0 .938-.562 1.125-1.375 1.125l-.5.016.266-1.672c.016-.109.094-.172.203-.172h.281c.531 0 1.125.031 1.125.703zm5.485 2.328c0 .766-.609 1.344-1.359 1.344-.578 0-1.016-.328-1.016-.938 0-.766.594-1.375 1.359-1.375.578 0 1.016.359 1.016.969zM8.016 11.484c0-1.313-1.016-1.75-2.172-1.75h-2.5a.335.335 0 0 0-.328.297L2 16.406c-.016.125.078.25.203.25h1.188c.172 0 .328-.125.344-.297l.281-1.719c.063-.453.828-.297 1.125-.297 1.781 0 2.875-1.062 2.875-2.859zm4.828 4.875l.641-4.078c.016-.125-.078-.25-.203-.25h-1.188c-.234 0-.25.344-.266.516-.359-.531-.891-.625-1.484-.625-1.531 0-2.703 1.344-2.703 2.828 0 1.219.766 2.016 1.984 2.016.562 0 1.266-.25 1.656-.688a1.227 1.227 0 0 0-.063.328c0 .141.063.25.203.25h1.078a.351.351 0 0 0 .344-.297zm6.984-4.109c0-.109-.094-.219-.203-.219h-1.203a.35.35 0 0 0-.281.156l-1.656 2.438-.688-2.344a.37.37 0 0 0-.344-.25h-1.172c-.109 0-.203.109-.203.219 0 .078 1.219 3.609 1.328 3.938-.172.234-1.281 1.687-1.281 1.875 0 .109.094.203.203.203h1.203a.35.35 0 0 0 .281-.156l3.984-5.75c.031-.031.031-.063.031-.109zm5.938-.766c0-1.313-1.016-1.75-2.172-1.75H21.11c-.172 0-.328.125-.344.297l-1.016 6.375c-.016.125.078.25.203.25h1.281c.125 0 .219-.094.25-.203l.281-1.813c.063-.453.828-.297 1.125-.297 1.781 0 2.875-1.062 2.875-2.859zm4.828 4.875l.641-4.078c.016-.125-.078-.25-.203-.25h-1.188c-.234 0-.25.344-.266.516-.344-.531-.875-.625-1.484-.625-1.531 0-2.703 1.344-2.703 2.828 0 1.219.766 2.016 1.984 2.016.578 0 1.281-.25 1.656-.688-.016.094-.063.234-.063.328 0 .141.063.25.203.25h1.078a.351.351 0 0 0 .344-.297zM34 9.969v-.016c0-.125-.094-.219-.203-.219h-1.156a.216.216 0 0 0-.203.172l-1.016 6.5-.016.031c0 .109.094.219.219.219h1.031a.335.335 0 0 0 .328-.297zM6.125 12.063c-.125.797-.656.891-1.344.891l-.516.016.266-1.672a.202.202 0 0 1 .203-.172h.297c.703 0 1.234.094 1.094.938zM36 4v20c0 1.094-.906 2-2 2H2c-1.094 0-2-.906-2-2V4c0-1.094.906-2 2-2h32c1.094 0 2 .906 2 2z"/></symbol></defs></svg>