<svg aria-hidden="true" style="position:absolute;width:0;height:0" xmlns="http://www.w3.org/2000/svg" overflow="hidden"><defs><symbol id="icon-youtube" viewBox="0 0 24 28"><path d="M15.172 19.437v3.297c0 .703-.203 1.047-.609 1.047-.234 0-.469-.109-.703-.344v-4.703c.234-.234.469-.344.703-.344.406 0 .609.359.609 1.047zm5.281.016v.719h-1.406v-.719c0-.703.234-1.062.703-1.062s.703.359.703 1.062zM5.359 16.047h1.672v-1.469H2.156v1.469h1.641v8.891H5.36v-8.891zm4.5 8.891h1.391v-7.719H9.859v5.906c-.313.438-.609.656-.891.656-.187 0-.297-.109-.328-.328-.016-.047-.016-.219-.016-.547v-5.688H7.233v6.109c0 .547.047.906.125 1.141.125.391.453.578.906.578.5 0 1.031-.313 1.594-.953v.844zm6.703-2.313v-3.078c0-.719-.031-1.234-.141-1.547-.172-.578-.562-.875-1.109-.875-.516 0-1 .281-1.453.844v-3.391h-1.391v10.359h1.391v-.75c.469.578.953.859 1.453.859.547 0 .938-.297 1.109-.859.109-.328.141-.844.141-1.563zm5.282-.156v-.203h-1.422c0 .562-.016.875-.031.953-.078.375-.281.562-.625.562-.484 0-.719-.359-.719-1.078v-1.359h2.797v-1.609c0-.828-.141-1.422-.422-1.813-.406-.531-.953-.797-1.656-.797-.719 0-1.266.266-1.672.797-.297.391-.438.984-.438 1.813v2.703c0 .828.156 1.437.453 1.813.406.531.953.797 1.687.797s1.313-.281 1.687-.828a1.8 1.8 0 0 0 .328-.844c.031-.141.031-.453.031-.906zm-9.5-14.266V4.922c0-.719-.203-1.078-.672-1.078-.453 0-.672.359-.672 1.078v3.281c0 .719.219 1.094.672 1.094.469 0 .672-.375.672-1.094zm11.234 11.735c0 1.797-.016 3.719-.406 5.469-.297 1.234-1.297 2.141-2.5 2.266-2.875.328-5.781.328-8.672.328s-5.797 0-8.672-.328c-1.203-.125-2.219-1.031-2.5-2.266-.406-1.75-.406-3.672-.406-5.469 0-1.813.016-3.719.406-5.469.297-1.234 1.297-2.141 2.516-2.281 2.859-.313 5.766-.313 8.656-.313s5.797 0 8.672.313c1.203.141 2.219 1.047 2.5 2.281.406 1.75.406 3.656.406 5.469zM7.984 0h1.594L7.687 6.234v4.234H6.124V6.234c-.141-.766-.453-1.859-.953-3.313-.344-.969-.688-1.953-1.016-2.922h1.656L6.92 4.108zm5.782 5.203v2.734c0 .828-.141 1.453-.438 1.844-.391.531-.938.797-1.656.797-.703 0-1.25-.266-1.641-.797-.297-.406-.438-1.016-.438-1.844V5.203c0-.828.141-1.437.438-1.828.391-.531.938-.797 1.641-.797.719 0 1.266.266 1.656.797.297.391.438 1 .438 1.828zM19 2.672v7.797h-1.422V9.61c-.562.656-1.094.969-1.609.969-.453 0-.781-.187-.922-.578-.078-.234-.125-.609-.125-1.172V2.673h1.422v5.734c0 .328 0 .516.016.547.031.219.141.344.328.344.281 0 .578-.219.891-.672V2.673h1.422z"/></symbol><symbol id="icon-facebook" viewBox="0 0 32 32"><path d="M19 6h5V0h-5c-3.86 0-7 3.14-7 7v3H8v6h4v16h6V16h5l1-6h-6V7c0-.542.458-1 1-1z"/></symbol><symbol id="icon-instagram" viewBox="0 0 32 32"><path d="M16 2.881c4.275 0 4.781.019 6.462.094 1.563.069 2.406.331 2.969.55a4.952 4.952 0 0 1 1.837 1.194 5.015 5.015 0 0 1 1.2 1.838c.219.563.481 1.412.55 2.969.075 1.688.094 2.194.094 6.463s-.019 4.781-.094 6.463c-.069 1.563-.331 2.406-.55 2.969a4.94 4.94 0 0 1-1.194 1.837 5.02 5.02 0 0 1-1.837 1.2c-.563.219-1.413.481-2.969.55-1.688.075-2.194.094-6.463.094s-4.781-.019-6.463-.094c-1.563-.069-2.406-.331-2.969-.55a4.952 4.952 0 0 1-1.838-1.194 5.02 5.02 0 0 1-1.2-1.837c-.219-.563-.481-1.413-.55-2.969-.075-1.688-.094-2.194-.094-6.463s.019-4.781.094-6.463c.069-1.563.331-2.406.55-2.969a4.964 4.964 0 0 1 1.194-1.838 5.015 5.015 0 0 1 1.838-1.2c.563-.219 1.412-.481 2.969-.55 1.681-.075 2.188-.094 6.463-.094zM16 0c-4.344 0-4.887.019-6.594.094-1.7.075-2.869.35-3.881.744-1.056.412-1.95.956-2.837 1.85a7.833 7.833 0 0 0-1.85 2.831C.444 6.538.169 7.7.094 9.4.019 11.113 0 11.656 0 16s.019 4.887.094 6.594c.075 1.7.35 2.869.744 3.881.413 1.056.956 1.95 1.85 2.837a7.82 7.82 0 0 0 2.831 1.844c1.019.394 2.181.669 3.881.744 1.706.075 2.25.094 6.594.094s4.888-.019 6.594-.094c1.7-.075 2.869-.35 3.881-.744 1.05-.406 1.944-.956 2.831-1.844s1.438-1.781 1.844-2.831c.394-1.019.669-2.181.744-3.881.075-1.706.094-2.25.094-6.594s-.019-4.887-.094-6.594c-.075-1.7-.35-2.869-.744-3.881a7.506 7.506 0 0 0-1.831-2.844A7.82 7.82 0 0 0 26.482.843C25.463.449 24.301.174 22.601.099c-1.712-.081-2.256-.1-6.6-.1z"/><path d="M16 7.781c-4.537 0-8.219 3.681-8.219 8.219s3.681 8.219 8.219 8.219 8.219-3.681 8.219-8.219A8.221 8.221 0 0 0 16 7.781zm0 13.55a5.331 5.331 0 1 1 0-10.663 5.331 5.331 0 0 1 0 10.663zM26.462 7.456a1.919 1.919 0 1 1-3.838 0 1.919 1.919 0 0 1 3.838 0z"/></symbol><symbol id="icon-twitter" viewBox="0 0 32 32"><path d="M32 7.075a12.941 12.941 0 0 1-3.769 1.031 6.601 6.601 0 0 0 2.887-3.631 13.21 13.21 0 0 1-4.169 1.594A6.565 6.565 0 0 0 22.155 4a6.563 6.563 0 0 0-6.563 6.563c0 .512.056 1.012.169 1.494A18.635 18.635 0 0 1 2.23 5.195a6.56 6.56 0 0 0-.887 3.3 6.557 6.557 0 0 0 2.919 5.463 6.565 6.565 0 0 1-2.975-.819v.081a6.565 6.565 0 0 0 5.269 6.437 6.574 6.574 0 0 1-2.968.112 6.588 6.588 0 0 0 6.131 4.563 13.17 13.17 0 0 1-9.725 2.719 18.568 18.568 0 0 0 10.069 2.95c12.075 0 18.681-10.006 18.681-18.681 0-.287-.006-.569-.019-.85A13.216 13.216 0 0 0 32 7.076z"/></symbol></defs></svg>