<svg aria-hidden="true" style="position:absolute;width:0;height:0" xmlns="http://www.w3.org/2000/svg" overflow="hidden"><defs><symbol id="icon-menu" viewBox="0 0 24 24"><path d="M3 13h18a1 1 0 0 0 0-2H3a1 1 0 0 0 0 2zm0-6h18a1 1 0 0 0 0-2H3a1 1 0 0 0 0 2zm0 12h18a1 1 0 0 0 0-2H3a1 1 0 0 0 0 2z"/></symbol><symbol id="menu-outline" viewBox="0 0 24 24"><path d="M19 18c.55 0 1 .45 1 1s-.45 1-1 1H5c-.55 0-1-.45-1-1s.45-1 1-1h14zm0-2H5c-1.654 0-3 1.346-3 3s1.346 3 3 3h14c1.654 0 3-1.346 3-3s-1.346-3-3-3zm0-5c.55 0 1 .45 1 1s-.45 1-1 1H5c-.55 0-1-.45-1-1s.45-1 1-1h14zm0-2H5c-1.654 0-3 1.346-3 3s1.346 3 3 3h14c1.654 0 3-1.346 3-3s-1.346-3-3-3zm0-5c.55 0 1 .45 1 1s-.45 1-1 1H5c-.55 0-1-.45-1-1s.45-1 1-1h14zm0-2H5C3.346 2 2 3.346 2 5s1.346 3 3 3h14c1.654 0 3-1.346 3-3s-1.346-3-3-3z"/></symbol><symbol id="menu1" viewBox="0 0 20 20"><path d="M16.4 9H3.6c-.552 0-.6.447-.6 1s.048 1 .6 1h12.8c.552 0 .6-.447.6-1s-.048-1-.6-1zm0 4H3.6c-.552 0-.6.447-.6 1s.048 1 .6 1h12.8c.552 0 .6-.447.6-1s-.048-1-.6-1zM3.6 7h12.8c.552 0 .6-.447.6-1s-.048-1-.6-1H3.6c-.552 0-.6.447-.6 1s.048 1 .6 1z"/></symbol><symbol id="menu11" viewBox="0 0 20 20"><path d="M0 3h20v2H0V3zm0 6h20v2H0V9zm0 6h20v2H0v-2z"/></symbol><symbol id="menu111" viewBox="0 0 32 32"><path d="M2 6h28v6H2zm0 8h28v6H2zm0 8h28v6H2z"/></symbol></defs></svg>